<svg width="159" height="30" viewBox="0 0 159 30" fill="none" xmlns="http://www.w3.org/2000/svg">
<path d="M50.0425 26.0185C50.0135 25.8836 49.9264 25.6432 49.7755 25.4673C49.7755 25.4673 49.5434 25.133 49.1835 25.0333C48.8933 24.9512 48.4522 24.9161 48.1156 25.3148C48.1156 25.3148 46.3395 27.3731 42.0039 27.461H41.9981H41.9459H41.528H41.5222H41.5164H41.5106H41.5048H41.0811H41.0288C36.6932 27.3731 34.9172 25.3148 34.9172 25.3148C34.5864 24.9161 34.1453 24.9571 33.8551 25.0333C33.4894 25.133 33.2631 25.4673 33.2631 25.4673C33.1122 25.6432 33.0251 25.8836 32.9961 26.0185C32.7349 27.2675 33.6984 27.8539 33.6984 27.8539C33.6984 27.8539 36.5714 29.9122 41.0405 30.0002H41.0869H41.5106H41.9343H41.9401H41.9865C46.4556 29.9063 49.3228 27.8539 49.3228 27.8539C49.3228 27.8539 50.3037 27.2675 50.0425 26.0185Z" fill="#FF8400"/>
<path d="M7.33049 21.8842C8.69444 21.7669 9.80881 21.3153 10.6446 20.5413C11.7474 19.5444 12.3103 18.0784 12.3103 16.1785C12.3103 14.5483 11.6661 13.1878 10.395 12.144C9.22841 11.153 7.82383 10.6545 6.22192 10.6545H1.81086C1.23626 10.6545 0.77774 10.8363 0.446911 11.194L0.429499 11.2116C0.145102 11.5517 0 11.9915 0 12.5076V29.2435H3.44179V22.7462L11.6255 29.2846L12.9778 26.2411L7.33049 21.8842ZM6.14067 19.0401H3.84807C3.65074 19.0401 3.53466 19.0284 3.46501 19.0108C3.4534 18.9404 3.44179 18.8231 3.44179 18.6296V14.2551C3.44179 14.0674 3.4534 13.9443 3.46501 13.868C3.54046 13.8563 3.66234 13.8446 3.84807 13.8446H6.11164C6.94742 13.8446 7.59748 14.0909 8.11403 14.5893L8.12564 14.601C8.62479 15.0643 8.86856 15.6272 8.86856 16.3368C8.86856 17.3161 8.65961 18.0198 8.23592 18.4302C7.84124 18.8349 7.13315 19.0401 6.14067 19.0401Z" fill="#FF8400"/>
<path d="M25.1547 12.2614L25.1431 12.2379C24.9168 11.7219 24.6788 11.3407 24.4176 11.0768L24.4002 11.0651C24.023 10.7074 23.5586 10.5315 23.0189 10.5315C22.4501 10.5315 21.9625 10.7074 21.5737 11.0534L21.562 11.0651C21.2602 11.3466 21.0223 11.7395 20.8307 12.279L14.2432 29.2495H17.8649L19.1011 25.7956L22.9956 16.0261L26.8553 25.7956L28.0916 29.2495H31.7133L25.1547 12.2614Z" fill="#FF8400"/>
<path d="M64.094 10.6603V22.6581L56.0961 11.9738C55.742 11.4343 55.4518 11.0942 55.179 10.889C54.8656 10.6485 54.4825 10.5254 54.0531 10.5254C53.345 10.5254 52.9735 10.8303 52.782 11.0883C52.544 11.4109 52.4221 11.8683 52.4221 12.4898V29.2492H55.8639V16.9993L63.8386 27.7011C64.1753 28.1996 64.4481 28.5221 64.6976 28.7039C65.0285 28.9619 65.4348 29.0909 65.8991 29.0909C66.5491 29.0909 66.9322 28.7801 67.1353 28.5162C67.3791 28.2054 67.501 27.7715 67.501 27.1851V10.6603H64.094Z" fill="#FF8400"/>
<path d="M52.0098 9.79293L52.004 9.75774C51.7022 7.61737 49.8275 6.86091 48.4693 6.70845C48.2082 0.955836 45.1146 0.211105 44.9811 0.181785L44.9579 0.175921C44.2498 0.0645043 43.4198 0 42.4854 0C40.5817 0 38.8927 0.252153 38.7766 0.269745C36.7742 0.551219 36.3679 3.23694 36.2867 4.40975C35.6656 4.42734 34.7022 4.4508 34.5513 4.4508H34.5164C33.3731 4.55049 32.8391 5.17207 32.7172 5.34213C31.8582 6.36833 32.2529 7.67601 32.2703 7.73465L32.2761 7.75224C32.5257 8.46179 33.0074 9.1772 33.7097 9.88675C33.2221 11.1534 32.9784 12.5666 32.9784 14.103C32.9784 16.8649 33.7387 19.4392 35.0678 21.1691C36.5827 23.1336 38.8753 24.2184 41.5277 24.2184C44.1802 24.2184 46.4728 23.1336 47.9876 21.1691C49.3341 19.4392 50.1003 16.8649 50.1003 14.0971C50.1003 13.845 50.0887 13.5928 50.0771 13.3465C52.1317 11.7281 52.0156 9.89848 52.0098 9.79293ZM45.4106 19.064C44.5981 20.3716 43.2167 21.0929 41.5219 21.0929C39.8329 21.0929 38.4632 20.3716 37.6622 19.064C36.9599 17.9381 36.5421 16.085 36.5421 14.1088C36.5421 13.4169 36.6001 12.766 36.7046 12.1561C36.9658 12.3145 37.2385 12.4728 37.5171 12.6253C39.6298 13.7922 41.5509 14.5017 41.6322 14.5311L41.6438 14.5369C42.7175 14.8946 43.8493 15.0764 45.0159 15.0764C45.6254 15.0764 46.1361 15.0236 46.5134 14.9709C46.4205 16.6187 46.02 18.1023 45.4106 19.064ZM49.932 12.0213C49.7752 12.1854 49.5953 12.3496 49.3864 12.5138C49.2181 12.6487 49.0265 12.7836 48.8176 12.9126C48.51 13.1061 48.1617 13.2937 47.7612 13.4697C47.5697 13.5518 47.3724 13.6339 47.1576 13.716C47.088 13.7394 47.0241 13.7687 46.9545 13.7922C46.9081 13.8039 46.7688 13.8391 46.5482 13.8743C46.2058 13.9329 45.6776 13.9974 45.0275 13.9974C43.9828 13.9974 42.9613 13.8332 42.0036 13.5166C41.8818 13.4697 40.0245 12.7777 38.0453 11.6811C37.6738 11.4759 37.3198 11.2648 36.9832 11.0596C36.8032 10.9481 36.6233 10.8309 36.455 10.7194C36.2751 10.6022 36.101 10.479 35.9384 10.3617C35.6424 10.1448 35.3696 9.93366 35.1201 9.72256C34.9518 9.58182 34.795 9.43522 34.6441 9.29448C34.4816 9.13615 34.3307 8.98369 34.1972 8.82536C33.7677 8.34451 33.4659 7.86952 33.3034 7.40627C33.2802 7.31831 33.1003 6.57357 33.553 6.04581L33.5704 6.03408L33.5936 5.9989C33.6342 5.95199 33.9186 5.61774 34.6035 5.55323C35.4393 5.52978 36.7046 5.50046 36.8148 5.50046H37.3488H37.3604V5.49459L37.3546 4.9551C37.3546 4.91992 37.372 1.57742 38.9333 1.36632H38.9449C38.9623 1.36632 40.6455 1.1083 42.497 1.1083C43.3618 1.1083 44.1279 1.16694 44.7722 1.27249C44.836 1.29009 45.3932 1.46601 45.9794 2.1521C46.5772 2.86165 47.2969 4.23383 47.4072 6.80227C47.413 6.94887 47.4188 7.10134 47.4188 7.2538L47.4304 7.74638V7.79329H47.471L47.9702 7.78743H47.976C48.005 7.78743 48.1037 7.78743 48.2488 7.79916C48.5332 7.82261 49.0033 7.89298 49.4792 8.08649C50.3382 8.4442 50.82 9.03647 50.9477 9.89848C50.9477 9.97471 50.9419 10.5259 50.5588 11.212C50.4079 11.4524 50.2105 11.7339 49.932 12.0213Z" fill="#FF8400"/>
<path d="M37.4012 5.9519L36.9775 5.97536C39.5603 9.01293 42.7235 9.64624 42.7235 9.64624C43.2633 9.5876 43.6115 9.01879 43.6115 9.01879C38.8522 7.84599 37.4012 5.9519 37.4012 5.9519Z" fill="#FF8400"/>
<path d="M46.8269 8.96094C46.9314 9.06062 47.1519 9.07235 47.1519 9.07235C47.802 8.84365 47.8542 8.05788 47.8542 8.05788C47.7033 8.04028 47.5176 8.04028 47.5176 8.04028C47.3899 8.66187 46.8269 8.96094 46.8269 8.96094Z" fill="#FF8400"/>
<path d="M44.4357 1.61233C43.1878 1.31913 39.688 1.65925 39.688 1.65925C44.7375 2.26911 45.2076 4.43293 45.2076 4.43293C45.6313 2.63268 44.4357 1.61233 44.4357 1.61233Z" fill="#FF8400"/>
<path d="M132.57 27.7464L134.942 27.7409L134.937 20.9991L142.717 27.7354L146.256 27.7299L136.958 19.6639H139.778C142.637 19.6639 144.965 17.576 144.965 15.0045C144.965 12.4385 142.637 10.3506 139.778 10.3506H132.558L132.57 27.7464ZM139.778 12.6528C141.329 12.6528 142.592 13.7078 142.592 15.01C142.592 16.3067 141.329 17.3672 139.778 17.3672H134.931V12.6583H139.778V12.6528Z" fill="white"/>
<path d="M127.814 22.1529C127.814 24.12 125.877 25.7244 123.499 25.7244C121.121 25.7244 119.185 24.1255 119.185 22.1529V10.3616H116.812V22.1474C116.812 25.3892 119.813 28.0211 123.499 28.0211C127.185 28.0211 130.186 25.3892 130.186 22.1474V10.3616H127.814V22.1529Z" fill="white"/>
<path d="M80.2219 17.3947C78.9649 17.2189 76.3602 16.4332 76.3489 15.109C76.3489 13.2903 78.0816 12.3397 79.7972 12.3397C81.5129 12.3397 83.2456 13.2903 83.2456 15.109V15.2848H85.6181V15.109C85.6181 12.2188 83.1154 10.043 79.7972 10.043C76.4791 10.043 73.982 12.2243 73.982 15.12C74.0103 18.098 77.7418 19.3892 79.9445 19.6805C79.9841 19.6859 83.5683 20.0925 83.7325 22.5871C83.7156 24.6585 81.7451 25.741 79.8029 25.741C77.8494 25.741 75.8732 24.6475 75.8732 22.5651V22.3893H73.5007V22.5651C73.5007 25.6915 76.2073 28.0432 79.8029 28.0432C83.3985 28.0432 86.1051 25.686 86.1051 22.5596V22.4992C85.8956 18.8947 82.1641 17.587 80.2219 17.3947Z" fill="white"/>
<path d="M98.6644 12.6694H90.5163V17.3508H98.2171V19.653H90.5163V25.4443H100.148V27.7465H88.1438V10.3672H99.678L98.6644 12.6694Z" fill="white"/>
<path d="M149.371 25.4443V19.653H157.071V17.3508H149.371V12.6694H157.587L158.532 10.3672H146.998V27.7465H159.002V25.4443H149.371Z" fill="white"/>
<path d="M103.755 15.1474C104.202 13.5375 105.969 12.3672 107.956 12.3672C109.706 12.3672 111.268 13.2353 111.942 14.576L111.959 14.609H114.468L114.451 14.5375C113.709 11.9056 111.042 10.0649 107.962 10.0649C104.27 10.0649 101.269 12.7023 101.269 15.9386V22.1585C101.269 25.4003 104.27 28.0322 107.962 28.0322C110.872 28.0322 113.431 26.3948 114.326 23.9607L114.354 23.8893H111.716L111.699 23.9113C110.923 25.0322 109.49 25.73 107.962 25.73C105.974 25.73 104.202 24.5596 103.76 22.9497C103.681 22.664 103.647 22.4058 103.647 22.1585V15.9386C103.641 15.6914 103.681 15.4276 103.755 15.1474Z" fill="white"/>
</svg>
